<svg width="13" height="13" viewBox="0 0 13 13" fill="none" xmlns="http://www.w3.org/2000/svg">
<g id="icon-&#229;&#133;&#179;&#233;&#151;&#173;">
<path id="Union" fill-rule="evenodd" clip-rule="evenodd" d="M1.42259 0.244078C1.09715 -0.0813592 0.569515 -0.0813592 0.244078 0.244078C-0.0813592 0.569515 -0.0813592 1.09715 0.244078 1.42259L4.82229 6.0008L0.244078 10.579C-0.0813592 10.9044 -0.0813592 11.4321 0.244078 11.7575C0.569515 12.083 1.09715 12.083 1.42259 11.7575L6.0008 7.17931L10.579 11.7575C10.9044 12.083 11.4321 12.083 11.7575 11.7575C12.083 11.4321 12.083 10.9044 11.7575 10.579L7.17931 6.0008L11.7575 1.42259C12.083 1.09715 12.083 0.569515 11.7575 0.244078C11.4321 -0.0813592 10.9044 -0.0813592 10.579 0.244078L6.0008 4.82229L1.42259 0.244078Z" fill="#797979"/>
</g>
</svg>
