<svg width="16" height="16" viewBox="0 0 16 16" fill="none" xmlns="http://www.w3.org/2000/svg">
<path fill-rule="evenodd" clip-rule="evenodd" d="M4.86608 1.45455C4.67318 1.45455 4.5168 1.61092 4.5168 1.80383V3.5719C4.5168 3.97357 4.19119 4.29918 3.78953 4.29918C3.38787 4.29918 3.06226 3.97357 3.06226 3.5719V1.80383C3.06226 0.807602 3.86986 0 4.86608 0H14.1962C15.1925 0 16.0001 0.807602 16.0001 1.80383V11.134C16.0001 12.1302 15.1925 12.9378 14.1962 12.9378H12.4082C12.0065 12.9378 11.6809 12.6122 11.6809 12.2105C11.6809 11.8089 12.0065 11.4833 12.4082 11.4833H14.1962C14.3891 11.4833 14.5455 11.3269 14.5455 11.134V1.80383C14.5455 1.61092 14.3891 1.45455 14.1962 1.45455H4.86608Z" fill="#8588A9"/>
<path fill-rule="evenodd" clip-rule="evenodd" d="M0 4.86608C0 3.86986 0.807602 3.06226 1.80383 3.06226H11.134C12.1302 3.06226 12.9378 3.86986 12.9378 4.86608V14.1962C12.9378 15.1925 12.1302 16.0001 11.134 16.0001H1.80383C0.807602 16.0001 0 15.1925 0 14.1962V4.86608ZM1.80383 4.5168C1.61092 4.5168 1.45455 4.67318 1.45455 4.86608V14.1962C1.45455 14.3891 1.61092 14.5455 1.80383 14.5455H11.134C11.3269 14.5455 11.4833 14.3891 11.4833 14.1962V4.86608C11.4833 4.67318 11.3269 4.5168 11.134 4.5168H1.80383Z" fill="#8588A9"/>
</svg>
