<svg width="18" height="16" viewBox="0 0 18 16" fill="none" xmlns="http://www.w3.org/2000/svg">
<g id="&#229;&#143;&#141;&#233;&#166;&#136;">
<path id="Union" fill-rule="evenodd" clip-rule="evenodd" d="M3 1.5H15C15.8284 1.5 16.5 2.17157 16.5 3V13C16.5 13.8284 15.8284 14.5 15 14.5H3C2.17157 14.5 1.5 13.8284 1.5 13V3C1.5 2.17157 2.17157 1.5 3 1.5ZM0 3C0 1.34315 1.34315 0 3 0H15C16.6569 0 18 1.34315 18 3V13C18 14.6569 16.6569 16 15 16H3C1.34315 16 0 14.6569 0 13V3ZM4.38587 4.35688C4.03069 4.14377 3.56999 4.25894 3.35688 4.61413C3.14377 4.96931 3.25894 5.43001 3.61413 5.64312L8.61413 8.64312C8.85164 8.78563 9.14836 8.78563 9.38587 8.64312L14.3859 5.64312C14.7411 5.43001 14.8562 4.96931 14.6431 4.61413C14.43 4.25894 13.9693 4.14377 13.6141 4.35688L9 7.12536L4.38587 4.35688Z" fill="#8588A9"/>
</g>
</svg>
