<svg width="16" height="16" viewBox="0 0 16 16" fill="none" xmlns="http://www.w3.org/2000/svg">
<path fill-rule="evenodd" clip-rule="evenodd" d="M6.60066 0.432178C6.71733 0.16939 6.97786 0 7.26538 0C8.87146 0 10.172 1.30322 10.172 2.90909V5.09088H13.7997C14.438 5.08496 15.0467 5.3593 15.4653 5.84121C15.8848 6.32427 16.0712 6.96728 15.9753 7.59988L14.9729 14.1452C14.9728 14.1454 14.9729 14.1449 14.9729 14.1452C14.81 15.2186 13.8827 16.01 12.7972 16H4.3596C3.95794 16 3.63232 15.6744 3.63232 15.2727V7.27269C3.63232 7.17103 3.65364 7.0705 3.69488 6.97759L6.60066 0.432178ZM7.70771 1.52329L5.08687 7.42686V14.5454H12.809C13.1703 14.5495 13.4803 14.2864 13.5347 13.9274L14.5372 7.38185C14.5372 7.38202 14.5372 7.38169 14.5372 7.38185C14.5691 7.17075 14.5069 6.95594 14.3672 6.79508M7.70771 1.52329C8.293 1.71061 8.71744 2.25974 8.71744 2.90909V5.81815C8.71744 6.21981 9.04305 6.54542 9.44472 6.54542H13.8034L13.8117 6.54538C14.0242 6.54296 14.2273 6.63414 14.3672 6.79508" fill="#8588A9"/>
<path fill-rule="evenodd" clip-rule="evenodd" d="M2.42572 6.4646H4.3595C4.76116 6.4646 5.08677 6.79021 5.08677 7.19188V15.2723C5.08677 15.674 4.76116 15.9996 4.3595 15.9996H2.42573C1.20823 16.0177 0.169639 15.1223 0.0065486 13.9152C0.00218782 13.8829 0 13.8504 0 13.8178V8.72693C0 8.69436 0.00218798 8.66183 0.00654919 8.62955C0.163089 7.471 1.16147 6.44608 2.42572 6.4646ZM1.45455 8.78219V13.762C1.53691 14.2202 1.93955 14.5535 2.40701 14.5452L2.41989 14.5451H3.63223V7.91915H2.41989L2.40701 7.91903C1.98419 7.91155 1.54362 8.27588 1.45455 8.78219Z" fill="#8588A9"/>
</svg>
