<svg width="30" height="32" viewBox="0 0 30 32" fill="none" xmlns="http://www.w3.org/2000/svg">
<g id="Group 427318567">
<path id="Vector 2" d="M24 3.49976C15 3.16642 0.000139713 4.99935 3.50004 22.4994C22.5 20.9998 16 7.49976 24 3.49976Z" fill="#2DE0AF" fill-opacity="0.4"/>
<path id="Vector" d="M28.0398 2.18721C27.9811 1.96035 27.8573 1.7561 27.684 1.60017C27.5107 1.44423 27.2957 1.34359 27.0659 1.3109C23.4651 0.828861 19.8125 0.907755 16.2355 1.54483C11.1418 2.48797 7.1213 4.55621 4.24372 7.69383C-1.25784 13.724 1.73733 23.1183 2.49439 25.1791C2.0701 26.6566 1.81001 28.1772 1.71896 29.7129C1.71356 29.8688 1.73869 30.0242 1.79289 30.1702C1.8471 30.3163 1.92932 30.4501 2.03483 30.5639C2.14034 30.6778 2.26707 30.7694 2.40774 30.8337C2.54841 30.8979 2.70025 30.9334 2.85455 30.9382H2.89498C3.19875 30.9375 3.49045 30.818 3.70898 30.6048C3.92752 30.3916 4.05593 30.1013 4.06732 29.7946C4.06732 29.6795 4.59653 18.4063 15.3387 11.7486C15.6043 11.5832 15.794 11.3179 15.866 11.0111C15.9381 10.7044 15.8865 10.3813 15.7228 10.113C15.559 9.8446 15.2965 9.65296 14.9929 9.58019C14.6893 9.50742 14.3695 9.55948 14.1039 9.72493C9.59691 12.4623 6.02471 16.5249 3.86519 21.3694C3.13018 18.0053 2.76267 12.8291 5.971 9.30534C11.1969 3.57964 19.9546 3.21947 24.2875 3.44226C22.4978 5.79269 22.1891 8.48845 21.9061 11.1099C21.5165 14.5855 21.1711 17.8716 17.6687 21.0278C13.4865 24.8078 7.52188 24.1506 7.46308 24.1431C7.158 24.1136 6.85357 24.2055 6.61459 24.3994C6.37561 24.5933 6.22098 24.8737 6.18362 25.1811C6.14625 25.4884 6.22911 25.7983 6.41454 26.0449C6.59998 26.2914 6.87334 26.4551 7.17642 26.501C7.66457 26.5548 8.15542 26.5796 8.64645 26.5753C10.9875 26.5753 15.5739 26.1037 19.249 22.7953C23.3871 19.0375 23.8428 14.9679 24.2434 11.3773C24.6109 8.24338 24.8939 5.54019 27.6171 3.43112C27.8017 3.28949 27.9405 3.09561 28.0157 2.87411C28.091 2.65262 28.0993 2.41352 28.0398 2.18721Z" fill="#3AB795" stroke="#3AB795" stroke-width="0.5"/>
</g>
</svg>
