<svg width="16" height="14" viewBox="0 0 16 14" fill="none" xmlns="http://www.w3.org/2000/svg">
<path id="Union" fill-rule="evenodd" clip-rule="evenodd" d="M15 2C15.5523 2 16 1.55228 16 1C16 0.447715 15.5523 0 15 0H1C0.447715 0 0 0.447717 0 1C0 1.55229 0.447715 2 1 2L15 2ZM16 7C16 7.55228 15.5523 8 15 8L1 8C0.447715 8 0 7.55229 0 7C0 6.44772 0.447715 6 1 6L15 6C15.5523 6 16 6.44772 16 7ZM16 13C16 13.5523 15.5523 14 15 14L1 14C0.447715 14 0 13.5523 0 13C0 12.4477 0.447715 12 1 12L15 12C15.5523 12 16 12.4477 16 13Z" fill="#8588A9"/>
</svg>
