<svg xmlns="http://www.w3.org/2000/svg" width="64" height="32" viewBox="0 0 64 32" fill="none">
  <g filter="url(#filter0_i_256_6985)">
    <rect width="64" height="32" rx="16" fill="url(#paint0_linear_256_6985)"/>
  </g>
  <rect x="0.5" y="0.5" width="63" height="31" rx="15.5" stroke="#69CCB1"/>
  <path d="M41.9345 5.42648C41.894 5.35853 41.7354 5.12993 41.3674 5.03695C40.8986 4.92059 40.2924 5.08014 39.5927 5.50021L18.749 16.3663C18.57 16.4472 17.9876 16.7515 18.0002 17.2934C18.0096 17.6554 18.2682 17.939 18.7995 18.1481L25.3888 20.2938L26.3728 20.6916L37.1195 10.2598L28.7712 21.6605L30.1278 22.2087L36.7473 24.3748C36.9224 24.4548 37.1127 24.4973 37.3057 24.4994C37.4836 24.5001 37.659 24.4584 37.817 24.3778C38.2598 24.1517 38.5264 23.6494 38.6035 22.9253L41.9903 5.76484C42.0139 5.64912 41.9941 5.52888 41.9345 5.42648ZM29.2637 26.9967C29.1411 27.0119 29.0178 26.9744 28.9251 26.8938C28.8325 26.8132 28.7795 26.6973 28.7795 26.5755L28.7776 23.319C28.7774 23.1883 28.8383 23.0649 28.9427 22.9843C29.047 22.9037 29.1833 22.8749 29.312 22.9064L31.9215 23.5421C32.0716 23.5787 32.1903 23.6918 32.2326 23.8384C32.2748 23.985 32.2341 24.1427 32.1259 24.2516L29.5183 26.8721C29.4503 26.9409 29.3605 26.9851 29.2637 26.9967Z" fill="white"/>
  <defs>
    <filter id="filter0_i_256_6985" x="0" y="-4" width="64" height="36" filterUnits="userSpaceOnUse" color-interpolation-filters="sRGB">
      <feFlood flood-opacity="0" result="BackgroundImageFix"/>
      <feBlend mode="normal" in="SourceGraphic" in2="BackgroundImageFix" result="shape"/>
      <feColorMatrix in="SourceAlpha" type="matrix" values="0 0 0 0 0 0 0 0 0 0 0 0 0 0 0 0 0 0 127 0" result="hardAlpha"/>
      <feOffset dy="-4"/>
      <feGaussianBlur stdDeviation="2"/>
      <feComposite in2="hardAlpha" operator="arithmetic" k2="-1" k3="1"/>
      <feColorMatrix type="matrix" values="0 0 0 0 0.349479 0 0 0 0 0.7625 0 0 0 0 0.650158 0 0 0 1 0"/>
      <feBlend mode="normal" in2="shape" result="effect1_innerShadow_256_6985"/>
    </filter>
    <linearGradient id="paint0_linear_256_6985" x1="29.131" y1="-6.66667" x2="31.1357" y2="21.205" gradientUnits="userSpaceOnUse">
      <stop stop-color="#7CDEC3"/>
      <stop offset="1" stop-color="#3AB795"/>
    </linearGradient>
  </defs>
</svg>