<svg width="16" height="16" viewBox="0 0 16 16" fill="none" xmlns="http://www.w3.org/2000/svg">
<path d="M4.80056 2.45857C4.04447 2.89607 3.38597 3.48374 2.86562 4.18538C2.34527 4.88703 1.97408 5.68778 1.77494 6.53832C1.5758 7.38886 1.55291 8.27116 1.70769 9.13088C1.86247 9.9906 2.19164 10.8095 2.67492 11.5372C3.15819 12.2649 3.78535 12.8859 4.51773 13.362C5.25012 13.8381 6.07224 14.1592 6.93343 14.3055C7.79463 14.4519 8.67667 14.4203 9.52521 14.2128C10.3737 14.0054 11.1708 13.6263 11.8673 13.0991L12.672 14.4925C12.4576 14.6468 12.2329 14.7916 11.9993 14.9268C8.17357 17.136 3.28163 15.825 1.07321 11.9993C-1.136 8.17357 0.174971 3.28163 4.0007 1.07321C7.82643 -1.136 12.7184 0.174971 14.9268 4.0007C16.7177 7.10256 16.1954 10.9051 13.895 13.4103L11.4778 9.22459L14.1013 9.92846C14.49 8.69869 14.4979 7.38018 14.1242 6.14581C13.7504 4.91144 13.0124 3.81882 12.0068 3.01121C11.0012 2.2036 9.77512 1.7187 8.48917 1.62008C7.20323 1.52146 5.9175 1.81373 4.80056 2.45857Z" fill="#8588A9"/>
</svg>
