<svg width="24" height="23" viewBox="0 0 24 23" fill="none" xmlns="http://www.w3.org/2000/svg">
<path d="M23.9345 0.432864C23.894 0.3639 23.7354 0.131877 23.3674 0.0375048C22.8986 -0.0806005 22.2924 0.0813405 21.5927 0.507692L0.74897 11.5364C0.569997 11.6185 -0.0124321 11.9273 0.000202404 12.4774C0.00962539 12.8448 0.268173 13.1327 0.799507 13.3449L7.38883 15.5227L8.37276 15.9264L19.1195 5.33856L10.7712 16.9098L12.1278 17.4663L18.7473 19.6648C18.9224 19.746 19.1127 19.7891 19.3057 19.7913C19.4836 19.7919 19.659 19.7496 19.817 19.6678C20.2598 19.4383 20.5264 18.9285 20.6035 18.1936L23.9903 0.776291C24.0139 0.658831 23.9941 0.536795 23.9345 0.432864ZM11.2637 22.3259C11.1411 22.3413 11.0178 22.3032 10.9251 22.2215C10.8325 22.1397 10.7795 22.022 10.7795 21.8984L10.7776 18.5932C10.7774 18.4605 10.8383 18.3352 10.9427 18.2534C11.047 18.1716 11.1833 18.1425 11.312 18.1743L13.9215 18.8196C14.0716 18.8568 14.1903 18.9715 14.2326 19.1203C14.2748 19.2691 14.2341 19.4292 14.1259 19.5397L11.5183 22.1994C11.4503 22.2693 11.3605 22.3141 11.2637 22.3259Z" fill="white"/>
</svg>
