<svg width="13" height="13" viewBox="0 0 13 13" fill="none" xmlns="http://www.w3.org/2000/svg">
<path d="M3 8L0.853554 10.1464C0.538571 10.4614 0 10.2383 0 9.79289V1C0 0.447715 0.447715 0 1 0H9C9.55228 0 10 0.447715 10 1V7C10 7.55228 9.55228 8 9 8H3Z" fill="#3AB795"/>
<path d="M11 8.99997V3.43066H12C12.5523 3.43066 13 3.87838 13 4.43066V12.0657C13 12.4651 12.5549 12.7033 12.2226 12.4817L10 11H4C3.44772 11 3 10.5523 3 9.99997V8.99997H11Z" fill="#A8E4D4"/>
<rect x="1" y="3" width="2" height="2" rx="1" fill="#F5F7FA"/>
<rect x="4" y="3" width="2" height="2" rx="1" fill="#F5F7FA"/>
<rect x="7" y="3" width="2" height="2" rx="1" fill="#F5F7FA"/>
</svg>
