<svg width="16" height="16" viewBox="0 0 16 16" fill="none" xmlns="http://www.w3.org/2000/svg">
<path fill-rule="evenodd" clip-rule="evenodd" d="M6.60066 15.5678C6.71733 15.8306 6.97786 16 7.26538 16C8.87146 16 10.172 14.6968 10.172 13.0909V10.9091H13.7997C14.438 10.915 15.0467 10.6407 15.4653 10.1588C15.8848 9.67573 16.0712 9.03272 15.9753 8.40012L14.9729 1.85483C14.9728 1.85461 14.9729 1.85506 14.9729 1.85483C14.81 0.781433 13.8827 -0.00996399 12.7972 1.33514e-05L4.3596 1.33514e-05C3.95794 1.33514e-05 3.63232 0.325624 3.63232 0.727285L3.63232 8.72731C3.63232 8.82897 3.65364 8.9295 3.69488 9.02241L6.60066 15.5678ZM7.70771 14.4767L5.08687 8.57314L5.08687 1.45456L12.809 1.45456C13.1703 1.45051 13.4803 1.71358 13.5347 2.07263L14.5372 8.61815C14.5372 8.61798 14.5372 8.61831 14.5372 8.61815C14.5691 8.82925 14.5069 9.04406 14.3672 9.20492M7.70771 14.4767C8.293 14.2894 8.71744 13.7403 8.71744 13.0909V10.1818C8.71744 9.78019 9.04305 9.45458 9.44472 9.45458H13.8034L13.8117 9.45462C14.0242 9.45704 14.2273 9.36586 14.3672 9.20492" fill="#8588A9"/>
<path fill-rule="evenodd" clip-rule="evenodd" d="M2.42572 9.5354H4.3595C4.76116 9.5354 5.08677 9.20979 5.08677 8.80812L5.08677 0.727666C5.08677 0.326004 4.76116 0.000392914 4.3595 0.000392914H2.42573C1.20823 -0.0176601 0.169639 0.877731 0.0065486 2.08482C0.00218782 2.1171 0 2.14963 0 2.1822L0 7.27307C0 7.30564 0.00218798 7.33817 0.00654919 7.37045C0.163089 8.529 1.16147 9.55392 2.42572 9.5354ZM1.45455 7.21781L1.45455 2.23795C1.53691 1.77979 1.93955 1.44655 2.40701 1.45482L2.41989 1.45494H3.63223L3.63223 8.08085H2.41989L2.40701 8.08097C1.98419 8.08845 1.54362 7.72412 1.45455 7.21781Z" fill="#8588A9"/>
</svg>
